<svg width="29" height="32" viewBox="0 0 29 32" fill="none" xmlns="http://www.w3.org/2000/svg">
<path d="M19.1863 32C18.281 32.0036 17.3952 31.7376 16.6416 31.2359C15.888 30.7343 15.3007 30.0197 14.9547 29.1831C14.6086 28.3466 14.5194 27.426 14.6984 26.5385C14.8774 25.6511 15.3164 24.837 15.9597 24.2L22.813 17.3333C23.015 17.1649 23.1797 16.9562 23.2966 16.7205C23.4135 16.4849 23.4799 16.2275 23.4918 15.9647C23.5037 15.702 23.4607 15.4396 23.3655 15.1944C23.2704 14.9492 23.1252 14.7265 22.9392 14.5405C22.7532 14.3545 22.5305 14.2093 22.2853 14.1141C22.0401 14.019 21.7777 13.976 21.515 13.9879C21.2522 13.9997 20.9948 14.0662 20.7591 14.1831C20.5235 14.3 20.3148 14.4647 20.1463 14.6667L10.9997 23.8C10.1305 24.6352 8.97178 25.1017 7.76634 25.1017C6.5609 25.1017 5.40222 24.6352 4.53301 23.8C3.67972 22.9429 3.20066 21.7827 3.20066 20.5733C3.20066 19.3639 3.67972 18.2037 4.53301 17.3467L15.973 5.90666C16.175 5.7382 16.3397 5.5295 16.4566 5.29386C16.5735 5.05822 16.6399 4.80082 16.6518 4.53805C16.6637 4.27529 16.6207 4.01294 16.5255 3.76772C16.4304 3.5225 16.2852 3.29979 16.0992 3.1138C15.9132 2.92781 15.6905 2.78261 15.4453 2.68747C15.2001 2.59232 14.9377 2.54931 14.675 2.56119C14.4122 2.57306 14.1548 2.63955 13.9191 2.75643C13.6835 2.8733 13.4748 3.03799 13.3063 3.24L2.21301 14.2667L0.333008 12.4L11.3863 1.33333C12.257 0.545217 13.3975 0.122246 14.5715 0.152048C15.7455 0.18185 16.863 0.662141 17.6926 1.49341C18.5222 2.32468 19.0001 3.44322 19.0275 4.61729C19.0549 5.79135 18.6296 6.93096 17.8397 7.8L6.41301 19.2267C6.06126 19.5813 5.8639 20.0605 5.8639 20.56C5.8639 21.0595 6.06126 21.5387 6.41301 21.8933C6.7725 22.2357 7.24991 22.4267 7.74634 22.4267C8.24278 22.4267 8.72019 22.2357 9.07968 21.8933L18.2263 12.7467C18.642 12.2875 19.1465 11.9176 19.7094 11.6592C20.2723 11.4009 20.8817 11.2596 21.5009 11.2439C22.12 11.2282 22.7359 11.3384 23.3111 11.5678C23.8864 11.7972 24.409 12.1411 24.8474 12.5786C25.2858 13.0161 25.6308 13.538 25.8614 14.1128C26.092 14.6876 26.2034 15.3032 26.189 15.9224C26.1746 16.5415 26.0345 17.1513 25.7774 17.7147C25.5202 18.2781 25.1513 18.7834 24.693 19.2L17.8263 26.0667C17.5237 26.4296 17.3677 26.8926 17.389 27.3647C17.4103 27.8368 17.6075 28.2839 17.9416 28.618C18.2758 28.9522 18.7228 29.1493 19.195 29.1707C19.6671 29.192 20.1301 29.036 20.493 28.7333L26.413 22.8267L28.333 24.7467L22.413 30.6667C21.9909 31.0924 21.4881 31.4295 20.934 31.6585C20.38 31.8874 19.7858 32.0035 19.1863 32Z" fill="#52ACF8"/>
</svg>
